<svg xmlns="http://www.w3.org/2000/svg" fill="none" viewBox="0 0 193 41">
  <path fill="#010817" d="M4.405 40.001H3.67L8.584.471h1.863l11.859 36.537L34.108.472h1.864l4.913 39.53h-4.687L32.3 8.377 22.081 40h-3.559L8.188 8.773 4.405 40.001ZM47.107 1.037V.472h10.051v.565h-2.767v38.4h2.767V40H47.107v-.564h2.597v-38.4h-2.597Zm38.307 38.964H63.955V.471h4.687v38.966h16.772V40Zm2.963 0h-.678L104.584.471l.621-.282 14.231 39.812h-4.8l-4.405-12.423h-16.49L88.378 40Zm14.456-33.43-8.865 20.442h16.094l-7.229-20.442Zm21.025 33.43h-.734V.471h1.92l23.491 36.537V.472h.734v39.53h-4.122L123.858 7.247V40Zm30.212-18.804c0-6.852 1.656-12.048 4.969-15.586 3.351-3.577 7.643-5.365 12.876-5.365s9.393 1.543 12.48 4.63c3.124 3.088 4.687 8.02 4.687 14.796s-1.657 11.896-4.97 15.36c-3.313 3.463-7.736 5.195-13.27 5.195-4.782 0-8.697-1.374-11.746-4.122-1.581-1.43-2.824-3.407-3.727-5.93-.866-2.56-1.299-5.553-1.299-8.979ZM171.745.81c-3.802 0-6.927 1.694-9.374 5.082-2.409 3.388-3.614 8.358-3.614 14.908 0 6.55 1.148 11.332 3.445 14.344 2.296 3.011 5.346 4.517 9.148 4.517 3.84 0 6.965-1.694 9.374-5.082 2.447-3.426 3.671-8.376 3.671-14.852 0-6.513-1.167-11.294-3.502-14.343-2.296-3.05-5.345-4.574-9.148-4.574Z"/>
</svg>
