<svg xmlns="http://www.w3.org/2000/svg" width="18" height="18" fill="none"><path fill-rule="evenodd" d="M1.746 1.292H.667a.625.625 0 1 1 0-1.25h1.056c.096 0 .201 0 .293.007.104.008.24.028.382.097.19.093.347.24.45.424.078.137.107.272.122.375.013.09.02.196.026.292v.016l.081 1.289h13.53c.113 0 .233 0 .337.008.115.01.27.034.428.121.206.114.368.295.458.513.069.165.076.323.073.438a4.178 4.178 0 0 1-.028.336l-.492 4.429c-.045.4-.082.734-.134 1.008a2.324 2.324 0 0 1-.285.8 2.29 2.29 0 0 1-.983.88 2.324 2.324 0 0 1-.828.195c-.277.021-.614.021-1.016.021H3.624l.128 2.045.002.039H14.834a.625.625 0 0 1 0 1.25H3.777c-.096 0-.2 0-.292-.007a1.047 1.047 0 0 1-.382-.098 1.042 1.042 0 0 1-.451-.424 1.048 1.048 0 0 1-.121-.375c-.013-.09-.02-.195-.026-.291L1.75 1.33c0-.013-.002-.026-.003-.038Zm1.8 8.75h10.567c.432 0 .72 0 .944-.018.215-.017.321-.047.393-.08.185-.087.34-.227.447-.4.042-.07.083-.171.124-.383.042-.22.074-.507.122-.936l.487-4.387.005-.046H3.155l.39 6.25Zm.663 6.874a1.042 1.042 0 1 1 2.083 0 1.042 1.042 0 0 1-2.083 0Zm7.5 0a1.042 1.042 0 1 1 2.083 0 1.042 1.042 0 0 1-2.083 0Z" clip-rule="evenodd"/></svg>