<svg xmlns="http://www.w3.org/2000/svg" fill="none" viewBox="0 0 30 30">
  <circle cx="22" cy="8" r="3" fill="red"/>
  <path fill="#534D47" d="M9.74 8H18c0 .729.195 1.412.535 2h-8.209l1.428 5h6.737a1.005 1.005 0 0 0 .963-.726l.768-2.69a3.984 3.984 0 0 0 1.962.412l-.808 2.828A3.013 3.013 0 0 1 18.491 17H10a1 1 0 0 0 0 2h12a1 1 0 0 1 0 2H10a3 3 0 0 1-.321-5.983L8.038 9.275V9.27l-.155-.545A1.005 1.005 0 0 0 6.921 8H6a1 1 0 0 1 0-2h.92a3.007 3.007 0 0 1 2.82 2Zm1.76 14a1.5 1.5 0 1 0 0 3 1.5 1.5 0 0 0 0-3Zm8 0a1.5 1.5 0 1 0 0 3 1.5 1.5 0 0 0 0-3Z"/>
</svg>