<?xml version="1.0" standalone="no"?>
<!DOCTYPE svg PUBLIC "-//W3C//DTD SVG 20010904//EN"
 "http://www.w3.org/TR/2001/REC-SVG-20010904/DTD/svg10.dtd">
<svg version="1.0" xmlns="http://www.w3.org/2000/svg"
 width="1268.000000pt" height="1268.000000pt" viewBox="0 0 1268.000000 1268.000000"
 preserveAspectRatio="xMidYMid meet">
<metadata>
Created by potrace 1.14, written by Peter Selinger 2001-2017
</metadata>
<g transform="translate(0.000000,1268.000000) scale(0.100000,-0.100000)"
fill="#000000" stroke="none">
<path d="M6898 7703 c-8 -10 -104 -227 -213 -483 -109 -256 -206 -483 -216
-505 -9 -22 -176 -411 -369 -865 -194 -454 -358 -838 -366 -854 -18 -37 -18
-36 10 -36 21 0 32 19 104 188 77 178 188 433 216 497 7 17 26 61 41 98 16 37
33 71 38 74 10 6 1135 8 1141 2 2 -2 23 -58 46 -124 23 -66 57 -163 75 -215
117 -328 139 -392 159 -450 l23 -65 166 -3 c92 -1 167 0 167 2 0 4 -178 504
-340 956 -26 74 -74 207 -105 295 -31 88 -77 216 -102 285 -25 69 -81 226
-124 350 -44 124 -84 234 -89 245 -5 11 -25 67 -45 125 -46 130 -131 371 -151
425 -9 22 -18 48 -21 58 -3 9 -11 17 -18 17 -6 0 -19 -8 -27 -17z m-121 -435
c1 -7 11 -40 23 -73 20 -55 62 -173 155 -435 32 -91 69 -197 205 -580 34 -96
72 -206 86 -243 13 -38 24 -70 24 -73 0 -2 -250 -4 -556 -4 l-555 1 7 21 c4
12 33 82 65 154 33 73 59 135 59 138 0 3 13 33 29 68 35 76 129 292 142 325 5
13 18 43 29 68 27 60 259 594 271 623 10 25 15 28 16 10z"/>
<path d="M11369 7716 c-2 -2 -31 -7 -64 -10 -331 -30 -658 -237 -842 -531 -79
-127 -160 -348 -179 -490 -3 -27 -8 -53 -10 -56 -25 -43 -25 -688 1 -729 2 -3
6 -26 10 -50 13 -94 65 -251 116 -353 135 -267 383 -451 700 -522 130 -28 341
-38 490 -21 370 41 666 211 854 492 86 127 164 315 189 454 37 207 38 221 41
440 2 185 -3 267 -29 449 -16 108 -74 281 -128 384 -92 174 -250 327 -436 421
-57 29 -217 85 -260 91 -15 2 -52 9 -82 15 -54 12 -362 25 -371 16z m271 -52
c199 -38 375 -158 495 -338 51 -77 121 -216 108 -216 -3 0 -1 -6 5 -12 21 -27
76 -266 87 -378 3 -36 8 -87 11 -115 7 -74 7 -388 0 -475 -32 -382 -131 -660
-311 -875 -81 -97 -237 -202 -348 -237 -70 -21 -191 -35 -277 -32 -201 8 -377
82 -510 215 -222 222 -321 550 -323 1069 -1 248 7 348 44 539 90 469 348 785
698 856 82 17 231 17 321 -1z"/>
<path d="M352 7700 c-8 -6 -9 -11 -17 -81 -3 -30 -8 -65 -10 -79 -2 -14 -7
-47 -10 -75 -5 -49 -11 -94 -20 -165 -3 -19 -7 -53 -9 -75 -14 -122 -18 -152
-21 -175 -12 -84 -16 -113 -20 -156 -3 -27 -10 -80 -15 -119 -6 -38 -12 -88
-15 -110 -10 -95 -36 -303 -40 -330 -6 -44 -15 -122 -31 -260 -3 -33 -8 -69
-10 -80 -2 -11 -6 -39 -9 -62 -6 -51 -16 -128 -20 -163 -2 -14 -7 -54 -10 -90
-4 -36 -9 -73 -11 -84 -2 -10 -6 -44 -9 -75 -4 -31 -8 -67 -10 -81 -5 -37 -15
-110 -19 -150 -7 -59 -16 -133 -21 -165 -2 -16 -7 -57 -11 -90 -3 -33 -8 -63
-11 -67 -2 -5 10 -8 26 -8 25 0 31 4 32 23 0 12 2 36 4 52 2 17 7 55 10 85 3
30 8 69 10 85 3 17 12 89 20 160 8 72 17 146 20 165 2 19 7 55 10 80 3 25 7
61 10 80 2 19 7 60 11 90 8 73 12 111 24 200 5 41 12 100 15 130 3 30 8 66 10
80 2 14 7 50 10 80 3 30 7 64 9 75 2 11 7 51 11 88 3 37 8 76 10 85 1 9 6 44
9 77 3 33 8 76 11 95 3 19 7 54 10 76 3 23 7 57 10 75 2 19 9 79 16 134 6 55
12 108 11 118 -2 51 22 -10 106 -266 51 -155 211 -639 355 -1075 l262 -792
124 2 125 3 52 160 c29 88 91 282 139 430 48 149 93 288 100 310 43 123 405
1252 405 1260 0 11 17 4 17 -7 1 -21 13 -121 18 -148 2 -14 7 -47 10 -75 3
-27 9 -84 14 -125 10 -73 15 -115 26 -210 6 -51 14 -114 20 -150 2 -14 7 -53
10 -88 4 -35 8 -71 10 -80 1 -9 6 -51 10 -92 4 -41 8 -77 10 -80 2 -3 6 -34 9
-70 4 -36 8 -76 11 -90 2 -14 6 -45 9 -70 3 -25 12 -99 21 -165 8 -66 17 -140
20 -165 3 -25 12 -99 20 -165 8 -66 17 -138 20 -160 14 -121 18 -150 20 -164
2 -9 4 -26 4 -38 1 -23 2 -23 166 -23 l165 0 -5 28 c-2 15 -9 68 -15 117 -6
50 -13 101 -15 115 -2 14 -6 52 -10 85 -3 33 -10 89 -15 125 -5 36 -11 85 -14
110 -3 25 -13 99 -21 165 -8 66 -17 140 -20 165 -3 25 -9 79 -15 120 -5 41
-12 98 -15 125 -3 28 -10 79 -15 115 -5 36 -12 92 -15 125 -3 33 -8 71 -10 85
-2 14 -7 48 -10 75 -3 28 -8 61 -10 75 -2 14 -7 57 -10 95 -4 39 -8 77 -10 85
-4 16 -10 57 -20 150 -8 68 -17 135 -29 229 -3 20 -8 61 -11 91 -9 78 -14 120
-20 163 -3 20 -7 54 -10 75 -3 20 -7 53 -9 72 -14 114 -18 145 -22 149 -7 7
-112 9 -121 2 -10 -7 -7 0 -118 -346 -48 -148 -97 -301 -110 -340 -13 -38 -64
-198 -115 -355 -50 -157 -95 -296 -100 -310 -11 -34 -88 -272 -210 -650 -56
-173 -117 -364 -137 -424 l-35 -108 -35 108 c-53 165 -281 870 -308 949 -13
39 -64 198 -115 355 -50 157 -98 303 -105 325 -16 45 -240 738 -250 773 -3 12
-12 23 -18 23 -37 4 -109 4 -115 -1z"/>
<path d="M2983 7693 c-9 -24 7 -29 91 -28 l86 1 -2 -1335 -3 -1334 -87 2 c-83
2 -88 1 -88 -18 0 -21 3 -21 351 -21 328 0 350 1 347 18 -3 14 -16 17 -83 20
-44 1 -86 3 -94 5 -12 2 -14 194 -15 1330 -1 878 2 1327 9 1328 6 1 48 2 95 3
72 1 85 4 88 19 2 9 -2 18 -10 18 -7 1 -163 2 -347 3 -254 1 -335 -2 -338 -11z"/>
<path d="M4121 7702 c-8 -3 -11 -361 -11 -1373 l0 -1369 745 0 c741 0 745 0
745 20 0 20 -5 20 -507 20 -280 -1 -542 -1 -583 -1 l-75 1 0 1352 0 1352 -151
1 c-83 0 -156 -1 -163 -3z"/>
<path d="M8140 6333 l0 -1373 25 0 25 0 0 1136 0 1137 58 -89 c65 -99 163
-250 237 -364 27 -41 91 -140 143 -220 293 -451 403 -619 543 -835 36 -55 102
-156 147 -225 44 -69 135 -208 201 -310 66 -102 127 -195 136 -207 15 -22 22
-23 158 -23 l142 0 -1 1368 c-1 752 -2 1370 -3 1373 0 3 -11 5 -23 4 l-23 -2
0 -1261 c0 -694 -2 -1262 -5 -1262 -3 0 -18 22 -35 48 -16 26 -239 372 -495
769 -256 397 -471 733 -478 745 -7 13 -38 62 -70 111 -31 48 -167 258 -301
467 -135 209 -249 381 -255 381 -6 1 -37 2 -68 3 l-58 1 0 -1372z"/>
</g>
</svg>
