<svg width="80" height="18" viewBox="0 0 80 18" fill="none" xmlns="http://www.w3.org/2000/svg">
<path d="M0.87157 17.0001H0.55957L2.64757 0.200078H3.43957L8.47957 15.7281L13.4956 0.200078H14.2876L16.3756 17.0001H14.3836L12.7276 3.56008L8.38357 17.0001H6.87157L2.47957 3.72808L0.87157 17.0001Z" fill="black"/>
<path d="M19.0199 0.440078V0.200078H23.2919V0.440078H22.1159V16.7601H23.2919V17.0001H19.0199V16.7601H20.1239V0.440078H19.0199Z" fill="black"/>
<path d="M35.3005 17.0001H26.1805V0.200078H28.1725V16.7601H35.3005V17.0001Z" fill="black"/>
<path d="M36.5598 17.0001H36.2718L43.4478 0.200078L43.7118 0.0800781L49.7598 17.0001H47.7198L45.8478 11.7201H38.8398L36.5598 17.0001ZM42.7038 2.79208L38.9358 11.4801H45.7758L42.7038 2.79208Z" fill="black"/>
<path d="M51.6391 17.0001H51.3271V0.200078H52.1431L62.1271 15.7281V0.200078H62.4391V17.0001H60.6871L51.6391 3.08008V17.0001Z" fill="black"/>
<path d="M64.4793 9.00808C64.4793 6.09608 65.1833 3.88808 66.5913 2.38408C68.0153 0.864078 69.8393 0.104078 72.0633 0.104078C74.2873 0.104078 76.0553 0.760078 77.3673 2.07208C78.6953 3.38408 79.3593 5.48008 79.3593 8.36008C79.3593 11.2401 78.6553 13.4161 77.2473 14.8881C75.8393 16.3601 73.9593 17.0961 71.6073 17.0961C69.5753 17.0961 67.9113 16.5121 66.6153 15.3441C65.9433 14.7361 65.4153 13.8961 65.0313 12.8241C64.6633 11.7361 64.4793 10.4641 64.4793 9.00808ZM71.9913 0.344079C70.3753 0.344079 69.0473 1.06408 68.0073 2.50408C66.9833 3.94408 66.4713 6.05608 66.4713 8.84008C66.4713 11.6241 66.9593 13.6561 67.9353 14.9361C68.9113 16.2161 70.2073 16.8561 71.8233 16.8561C73.4553 16.8561 74.7833 16.1361 75.8073 14.6961C76.8473 13.2401 77.3673 11.1361 77.3673 8.38408C77.3673 5.61608 76.8713 3.58408 75.8793 2.28808C74.9033 0.992079 73.6073 0.344079 71.9913 0.344079Z" fill="black"/>
</svg>
