<svg xmlns="http://www.w3.org/2000/svg" fill="none" viewBox="0 0 20 20">
  <path fill-rule="evenodd" d="M5.141 1.875h.551c.445 0 .817 0 1.12.025.317.026.614.082.895.225.431.22.782.57 1.002 1.001.143.281.199.579.225.895.024.304.024.675.024 1.12v9.718c0 .445 0 .816-.024 1.12-.026.317-.082.614-.225.895-.22.43-.57.782-1.002 1.001-.281.143-.578.2-.895.225-.303.025-.675.025-1.12.025h-.55c-.446 0-.817 0-1.12-.025-.317-.026-.615-.082-.896-.225a2.292 2.292 0 0 1-1.001-1.001c-.143-.281-.2-.578-.225-.895-.025-.304-.025-.675-.025-1.12V5.14c0-.445 0-.816.025-1.12.026-.316.082-.614.225-.895.22-.43.57-.782 1.001-1.001.281-.143.579-.2.895-.225.304-.025.675-.025 1.12-.025Zm-1.018 1.27c-.24.02-.354.055-.43.094a1.04 1.04 0 0 0-.454.455c-.039.075-.074.19-.093.429-.02.246-.021.567-.021 1.044v9.666c0 .477 0 .797.02 1.044.02.24.055.354.094.43.1.195.259.355.455.455.075.038.19.073.429.092.246.02.567.021 1.044.021h.5c.477 0 .797 0 1.043-.02.24-.02.354-.055.43-.093.196-.1.355-.26.455-.456.038-.075.073-.19.093-.429.02-.247.02-.567.02-1.044V5.167c0-.477 0-.798-.02-1.044-.02-.24-.055-.354-.093-.43-.1-.195-.26-.355-.455-.454-.076-.039-.19-.074-.43-.093a14.32 14.32 0 0 0-1.043-.021h-.5c-.477 0-.798 0-1.044.02Zm10.185-1.27h.55c.446 0 .817 0 1.12.025.318.026.615.082.896.225.43.22.782.57 1.001 1.001.143.281.2.579.225.895.025.304.025.675.025 1.12v9.718c0 .445 0 .816-.025 1.12-.026.317-.082.614-.225.895-.22.43-.57.782-1.001 1.001-.281.143-.578.2-.895.225-.304.025-.675.025-1.12.025h-.551c-.445 0-.817 0-1.12-.025-.317-.026-.614-.082-.895-.225a2.292 2.292 0 0 1-1.002-1.001c-.143-.281-.199-.578-.225-.895-.024-.304-.024-.675-.024-1.12V5.14c0-.445 0-.816.024-1.12.026-.316.082-.614.225-.895.22-.43.57-.782 1.002-1.001.281-.143.578-.2.895-.225.303-.025.675-.025 1.12-.025Zm-1.018 1.27c-.24.02-.354.055-.43.094-.196.1-.355.259-.455.455-.038.075-.073.19-.093.429-.02.246-.02.567-.02 1.044v9.666c0 .477 0 .797.02 1.044.02.24.055.354.093.43.1.195.26.355.455.455.076.038.19.073.43.092.246.02.566.021 1.043.021h.5c.477 0 .797 0 1.044-.02.24-.02.354-.055.43-.093.195-.1.355-.26.455-.456.038-.075.073-.19.092-.429.02-.247.021-.567.021-1.044V5.167c0-.477 0-.798-.02-1.044-.02-.24-.055-.354-.093-.43-.1-.195-.26-.355-.456-.454-.075-.039-.19-.074-.429-.093-.247-.02-.567-.021-1.044-.021h-.5c-.477 0-.797 0-1.043.02Z" clip-rule="evenodd"/>
</svg>