<svg xmlns="http://www.w3.org/2000/svg" fill="none" viewBox="0 0 20 20">
  <path fill-rule="evenodd" d="M3.811 1.875h3.211c.214 0 .411 0 .576.013.178.015.372.048.564.146.274.14.498.363.637.637.098.192.131.387.146.564.013.165.013.362.013.576v3.21c0 .215 0 .412-.013.577a1.478 1.478 0 0 1-.146.564c-.14.274-.363.498-.637.637a1.478 1.478 0 0 1-.564.146c-.165.013-.362.013-.576.013h-3.21c-.215 0-.412 0-.577-.013a1.478 1.478 0 0 1-.564-.146 1.458 1.458 0 0 1-.637-.637 1.478 1.478 0 0 1-.146-.564c-.013-.165-.013-.362-.013-.576V3.81c0-.214 0-.411.013-.576.015-.177.048-.372.146-.564.14-.274.363-.497.637-.637.192-.098.387-.131.564-.146.165-.013.362-.013.576-.013ZM3.234 3.15h.001Zm.002-.001a.524.524 0 0 1 .1-.015 6.95 6.95 0 0 1 .497-.009H7c.244 0 .389 0 .496.01a.524.524 0 0 1 .101.014c.037.02.068.05.087.087.003.008.01.035.015.1.009.109.01.254.01.497V7c0 .244-.001.389-.01.496a.524.524 0 0 1-.015.101.208.208 0 0 1-.087.087.524.524 0 0 1-.1.015A6.95 6.95 0 0 1 7 7.71H3.833c-.243 0-.389-.001-.496-.01a.524.524 0 0 1-.1-.015.208.208 0 0 1-.088-.087.524.524 0 0 1-.015-.1A6.95 6.95 0 0 1 3.125 7V3.833c0-.243 0-.389.01-.496a.524.524 0 0 1 .014-.1.208.208 0 0 1 .087-.088Zm-.086.085v.001Zm0 4.365v-.001.001Zm.084.085h.001Zm4.365 0h-.001.001Zm.085-.085v-.001.001Zm0-4.365v.001Zm-.086-.085h.001-.001Zm5.38-1.274h3.21c.215 0 .412 0 .577.013.177.015.372.048.564.146.274.14.497.363.637.637.098.192.131.387.146.564.013.165.013.362.013.576v3.21c0 .215 0 .412-.013.577a1.48 1.48 0 0 1-.146.564c-.14.274-.363.498-.637.637a1.478 1.478 0 0 1-.564.146c-.165.013-.362.013-.576.013h-3.21c-.215 0-.412 0-.577-.013a1.479 1.479 0 0 1-.564-.146 1.458 1.458 0 0 1-.637-.637 1.478 1.478 0 0 1-.146-.564c-.013-.165-.013-.362-.013-.576v-3.21c0-.215 0-.412.013-.577.015-.177.048-.372.146-.564.14-.274.362-.497.637-.637.192-.098.386-.131.564-.146.165-.013.362-.013.576-.013Zm-.577 1.275h.001-.001Zm.002-.001a.524.524 0 0 1 .1-.015c.108-.009.253-.009.497-.009h3.167c.243 0 .388 0 .496.01a.523.523 0 0 1 .1.014.21.21 0 0 1 .088.087c.002.008.01.035.015.1.009.109.009.254.009.497V7c0 .244 0 .389-.01.496a.518.518 0 0 1-.014.101.208.208 0 0 1-.087.087.524.524 0 0 1-.1.015 6.76 6.76 0 0 1-.497.01H13a6.68 6.68 0 0 1-.496-.01.524.524 0 0 1-.101-.015.208.208 0 0 1-.087-.087.523.523 0 0 1-.015-.1A7.018 7.018 0 0 1 12.29 7V3.833c0-.243.001-.389.01-.496a.523.523 0 0 1 .015-.1.208.208 0 0 1 .087-.088Zm-.087.085v.001Zm0 4.365v-.001.001Zm.085.085h.001-.001Zm4.365 0h-.001Zm.084-.085v-.001.001Zm0-4.365v.001Zm-.085-.085s.001 0 0 0ZM3.81 11.042h3.21c.215 0 .412 0 .577.013.178.015.372.048.564.146.274.14.498.362.637.637.098.192.131.386.146.564.013.165.013.362.013.576v3.21c0 .215 0 .412-.013.577a1.478 1.478 0 0 1-.146.564c-.14.274-.363.497-.637.637a1.48 1.48 0 0 1-.564.146c-.165.013-.362.013-.576.013h-3.21c-.215 0-.412 0-.577-.013a1.48 1.48 0 0 1-.564-.146 1.459 1.459 0 0 1-.637-.637 1.478 1.478 0 0 1-.146-.564c-.013-.165-.013-.362-.013-.576v-3.21c0-.215 0-.412.013-.577.015-.178.048-.372.146-.564.14-.274.363-.498.637-.637.192-.098.387-.131.564-.146.165-.013.362-.013.576-.013Zm-.577 1.274h.001Zm.002 0a.522.522 0 0 1 .1-.015 6.76 6.76 0 0 1 .497-.01H7c.244 0 .389.001.496.01a.523.523 0 0 1 .101.015c.037.02.068.05.087.087.003.007.01.035.015.1.009.108.01.253.01.497v3.167c0 .243-.001.388-.01.496a.524.524 0 0 1-.015.1.208.208 0 0 1-.087.088.518.518 0 0 1-.1.015 6.94 6.94 0 0 1-.497.009H3.833c-.243 0-.389 0-.496-.01a.518.518 0 0 1-.1-.014.208.208 0 0 1-.088-.087.524.524 0 0 1-.015-.1 6.949 6.949 0 0 1-.009-.497V13c0-.244 0-.389.01-.496a.524.524 0 0 1 .014-.101.208.208 0 0 1 .087-.087Zm-.086.085v.001-.001Zm0 4.365v-.001Zm.084.084h.001Zm4.365 0h-.001.001Zm.085-.084v-.001Zm0-4.365v.001-.001Zm-.086-.085h.001-.001Zm5.38-1.274h3.21c.215 0 .412 0 .577.013.177.015.372.048.564.146.274.14.497.362.637.637.098.192.131.386.146.564.013.165.013.362.013.576v3.21c0 .215 0 .412-.013.577a1.48 1.48 0 0 1-.146.564 1.46 1.46 0 0 1-.637.637 1.48 1.48 0 0 1-.564.146c-.165.013-.362.013-.576.013h-3.21c-.215 0-.412 0-.577-.013a1.48 1.48 0 0 1-.564-.146 1.459 1.459 0 0 1-.637-.637 1.478 1.478 0 0 1-.146-.564c-.013-.165-.013-.362-.013-.576v-3.21c0-.215 0-.412.013-.577.015-.178.048-.372.146-.564.14-.274.362-.498.637-.637.192-.098.386-.131.564-.146.165-.013.362-.013.576-.013Zm-.577 1.274h.001-.001Zm.002 0a.523.523 0 0 1 .1-.015c.108-.009.253-.01.497-.01h3.167c.243 0 .388.001.496.01a.523.523 0 0 1 .1.015.21.21 0 0 1 .088.087c.002.007.01.035.015.1.009.108.009.253.009.497v3.167c0 .243 0 .388-.01.496a.518.518 0 0 1-.014.1.208.208 0 0 1-.087.088.518.518 0 0 1-.1.015 6.94 6.94 0 0 1-.497.009H13c-.244 0-.389 0-.496-.01a.518.518 0 0 1-.101-.014.208.208 0 0 1-.087-.087.523.523 0 0 1-.015-.1 7.018 7.018 0 0 1-.01-.497V13c0-.244.001-.389.01-.496a.523.523 0 0 1 .015-.101.208.208 0 0 1 .087-.087Zm-.087.085v.001-.001Zm0 4.365v-.001Zm.085.084h.001-.001Zm4.365 0h-.001Zm.084-4.45v.002-.001Z" clip-rule="evenodd"/>
</svg>