<svg xmlns="http://www.w3.org/2000/svg" fill="none" viewBox="0 0 24 24"><path fill-rule="evenodd" d="M8.25 3A.75.75 0 0 1 9 2.25h6a.75.75 0 0 1 0 1.5H9A.75.75 0 0 1 8.25 3ZM4.994 5.25H3a.75.75 0 0 0 0 1.5h1.298l.657 9.85c.05.763.092 1.38.165 1.879.076.514.193.964.428 1.377a3.75 3.75 0 0 0 1.623 1.519c.428.207.885.294 1.403.335.503.04 1.121.04 1.886.04h3.08c.765 0 1.383 0 1.886-.04.518-.041.975-.128 1.403-.335a3.75 3.75 0 0 0 1.623-1.519c.235-.413.352-.863.428-1.377.073-.5.114-1.116.165-1.879l.657-9.85H21a.75.75 0 0 0 0-1.5H5.007a.72.72 0 0 0-.013 0Zm13.204 1.5H5.802l.648 9.72c.053.8.09 1.358.154 1.79.063.425.142.669.248.854.225.395.564.712.973.91.192.094.44.157.868.19.436.036.995.036 1.798.036h3.018c.803 0 1.362 0 1.798-.035.427-.034.676-.097.868-.19a2.25 2.25 0 0 0 .973-.911c.106-.185.185-.43.248-.853.063-.433.101-.99.154-1.792l.648-9.719ZM10 9.75a.75.75 0 0 1 .75.75v5a.75.75 0 0 1-1.5 0v-5a.75.75 0 0 1 .75-.75Zm4 0a.75.75 0 0 1 .75.75v5a.75.75 0 0 1-1.5 0v-5a.75.75 0 0 1 .75-.75Z" clip-rule="evenodd"/></svg>
