<svg xmlns="http://www.w3.org/2000/svg" width="22" height="18" viewBox="0 0 22 18" fill="none"><path id="Icon" fill-rule="evenodd" clip-rule="evenodd" d="M5.76796 0.25H16.2322C17.045 0.249993 17.7006 0.249987 18.2315 0.293364C18.7782 0.338026 19.2583 0.432385 19.7025 0.658726C20.4081 1.01825 20.9818 1.59193 21.3413 2.29754C21.564 2.73456 21.6589 3.20634 21.7045 3.74201C21.7554 3.88059 21.763 4.02901 21.7309 4.16865C21.7501 4.61996 21.7501 5.14824 21.7501 5.76788V12.2321C21.7501 13.045 21.7501 13.7006 21.7067 14.2315C21.662 14.7781 21.5677 15.2582 21.3413 15.7025C20.9818 16.4081 20.4081 16.9818 19.7025 17.3413C19.2583 17.5676 18.7782 17.662 18.2315 17.7066C17.7006 17.75 17.045 17.75 16.2322 17.75H5.76794C4.95511 17.75 4.2995 17.75 3.7686 17.7066C3.22196 17.662 2.74182 17.5676 2.2976 17.3413C1.59199 16.9818 1.01832 16.4081 0.65879 15.7025C0.432449 15.2582 0.33809 14.7781 0.293428 14.2315C0.250051 13.7006 0.250057 13.0449 0.250064 12.2321V5.7679C0.250059 5.14825 0.250054 4.61998 0.269268 4.16866C0.237087 4.02902 0.244781 3.88059 0.295639 3.742C0.341183 3.20634 0.436118 2.73455 0.65879 2.29754C1.01832 1.59193 1.59199 1.01825 2.2976 0.658726C2.74182 0.432385 3.22196 0.338026 3.7686 0.293364C4.29951 0.249987 4.95512 0.249993 5.76796 0.25ZM1.75022 5.4406C1.75008 5.55509 1.75006 5.67476 1.75006 5.8V12.2C1.75006 13.0525 1.75065 13.6467 1.78845 14.1093C1.82553 14.5632 1.89466 14.824 1.9953 15.0215C2.21101 15.4448 2.55522 15.789 2.97859 16.0048C3.1761 16.1054 3.43687 16.1745 3.89074 16.2116C4.35338 16.2494 4.94761 16.25 5.80006 16.25H16.2001C17.0525 16.25 17.6468 16.2494 18.1094 16.2116C18.5633 16.1745 18.824 16.1054 19.0215 16.0048C19.4449 15.789 19.7891 15.4448 20.0048 15.0215C20.1055 14.824 20.1746 14.5632 20.2117 14.1093C20.2495 13.6467 20.2501 13.0525 20.2501 12.2V5.8C20.2501 5.67476 20.2501 5.55509 20.2499 5.4406L13.2652 10.3299C13.2313 10.3537 13.1977 10.3772 13.1646 10.4004C12.6032 10.7942 12.1629 11.103 11.6652 11.227C11.2285 11.3359 10.7717 11.3359 10.3349 11.227C9.83728 11.103 9.39696 10.7942 8.83552 10.4004C8.80241 10.3772 8.76888 10.3537 8.73489 10.3299L1.75022 5.4406ZM20.1873 3.65347L12.405 9.10102C11.6931 9.59942 11.4946 9.72367 11.3024 9.77158C11.1039 9.82106 10.8962 9.82106 10.6977 9.77158C10.5056 9.72367 10.3071 9.59942 9.59508 9.10102L1.81286 3.65347C1.85275 3.34063 1.91365 3.13876 1.9953 2.97852C2.21101 2.55516 2.55522 2.21095 2.97859 1.99524C3.1761 1.8946 3.43687 1.82547 3.89074 1.78838C4.35338 1.75058 4.94761 1.75 5.80006 1.75H16.2001C17.0525 1.75 17.6468 1.75058 18.1094 1.78838C18.5633 1.82547 18.824 1.8946 19.0215 1.99524C19.4449 2.21095 19.7891 2.55516 20.0048 2.97852C20.0865 3.13876 20.1474 3.34063 20.1873 3.65347Z" fill="#010817"/></svg>