<svg xmlns="http://www.w3.org/2000/svg" width="24" height="24" viewBox="0 0 24 24" fill="none"><path fill-rule="evenodd" clip-rule="evenodd" d="M22.3539 1.33875C22.5978 1.46926 22.75 1.7234 22.75 2V18C22.75 18.2508 22.6247 18.4849 22.416 18.624L16.416 22.624C16.1797 22.7816 15.8745 22.7921 15.6279 22.6512L9 18.8638L2.3721 22.6512C2.13998 22.7838 1.85479 22.7829 1.62355 22.6487C1.39232 22.5145 1.25 22.2674 1.25 22V6C1.25 5.73086 1.39421 5.48235 1.6279 5.34882L8.6279 1.34882C8.85847 1.21706 9.14153 1.21706 9.3721 1.34882L15.9697 5.11885L21.584 1.37596C21.8141 1.22254 22.11 1.20823 22.3539 1.33875ZM15.25 6.43524L9.75 3.29239V17.5648L15.25 20.7076V6.43524ZM16.75 20.5986L21.25 17.5986V3.40139L16.75 6.40139V20.5986ZM8.25 17.5648V3.29239L2.75 6.43524V20.7076L8.25 17.5648Z" fill="#010817"/></svg>